<svg xmlns="http://www.w3.org/2000/svg" viewBox="0 0 7.24 5.996">
      <path
        fill="#fffcf7"
        d="M-2.61-.737l.081.187.495-.217.078.179-.495.216.083.188-.156.068-.243-.553.156-.068m-.294-.859l.707-.066.018.194-.277.026.022.237.277-.026.018.194-.707.066-.018-.194.261-.024-.022-.237-.26.024-.019-.194m.738-.199l-.701-.11.03-.193.701.11-.03.193m.076-.858l.158.062-.183.471-.662-.257.18-.463.158.061-.109.282.093.036.094-.24.147.057-.094.24.105.041.113-.29m.058-.405l.27.221-.123.15-.55-.449.096-.117.46.008-.28-.229.124-.15.55.449-.098.12-.449-.003m.825-.952l-.171.112.296.452-.164.107-.295-.452-.172.112-.093-.142.506-.33.093.141m.269-.275l.209-.063.421.614-.19.057-.08-.12-.181.054v.145l-.191.058.012-.745m.292.372l-.132-.221.009.258.123-.037m.62-.169l-.012.349-.195-.007.026-.71.152.006.271.371.014-.36.195.007-.027.71-.155-.006-.268-.36m.915.13q.03-.058.081-.102.05-.044.116-.067.065-.024.14-.02.073.005.149.044.09.047.138.12.047.073.048.152L1.38-3.8q.004-.037-.009-.065-.013-.028-.034-.048-.022-.02-.046-.032-.037-.02-.072-.02-.035.001-.064.016-.03.015-.054.04t-.039.054q-.017.033-.023.068-.006.035 0 .068.007.034.027.061.02.027.054.045.023.013.052.018.029.005.058 0 .03-.007.055-.03l.097.158q-.043.036-.104.047-.06.01-.124-.002-.064-.011-.118-.04-.07-.036-.114-.094-.043-.059-.06-.127-.019-.069-.011-.139.007-.07.038-.13m.47.695l.467-.535.147.128-.467.535-.147-.128m.654.173l-.287.198-.11-.161.584-.403.086.126-.136.439.298-.205.11.161-.584.403-.088-.128.127-.43m.315 1.122l-.163.049-.144-.485.68-.202.142.476-.163.049-.086-.29-.096.029.074.247-.152.045-.073-.248-.108.032.089.298m-.16.689l.373.018-.257-.131.005-.104.269-.106-.374-.019.01-.194.709.035-.01.212-.342.137.326.17-.01.212-.71-.035.01-.195m.532.755l-.085.2-.742-.07.078-.182.144.014.075-.173-.112-.094.078-.183.564.488m-.473-.015l.255.04-.204-.159-.05.119M-2.76.349q0 .026-.013.047-.014.02-.037.032-.022.012-.05.012h-.167V.085h.171q.025 0 .043.013.019.014.028.034.01.021.01.044 0 .026-.013.049-.014.022-.038.033.03.01.048.034.018.024.018.057m-.035-.006q0-.018-.008-.034-.008-.015-.022-.024-.013-.01-.03-.01h-.137V.41h.133q.018 0 .032-.01.015-.01.023-.025.01-.015.01-.032m-.198-.227v.13h.122q.018 0 .031-.009.014-.009.022-.024.008-.015.008-.032 0-.018-.008-.033-.007-.014-.02-.023-.013-.01-.03-.01h-.125m.542.294V.44h-.239V.085h.234v.031h-.199v.128h.174v.03h-.174v.135h.204m.276-.257Q-2.18.143-2.19.136q-.01-.006-.023-.011Q-2.226.12-2.24.117q-.014-.003-.03-.003-.046 0-.068.017-.022.018-.022.049 0 .02.01.033.01.012.033.02.022.007.056.015.038.008.065.019.028.01.043.03.015.018.015.05 0 .025-.01.043-.01.018-.026.03-.017.012-.04.017-.024.006-.052.006-.028 0-.053-.006-.025-.005-.048-.017Q-2.39.41-2.41.392l.018-.029q.01.01.022.019.014.009.03.016.016.007.035.01.019.004.039.004.042 0 .066-.015.024-.016.024-.046 0-.022-.012-.036Q-2.2.302-2.224.294q-.024-.009-.06-.017Q-2.32.27-2.345.258-2.37.248-2.384.23q-.013-.017-.013-.045 0-.033.016-.056.017-.023.045-.035.029-.011.066-.011.023 0 .043.004.02.005.038.014.017.01.032.023l-.017.028m.353-.036h-.127V.44h-.035V.116h-.126v-.03h.288v.03m.319.327q-.038 0-.068-.015-.03-.015-.053-.041-.022-.026-.034-.058-.012-.032-.012-.066 0-.036.013-.068.012-.032.035-.058.023-.025.053-.04.03-.014.066-.014.038 0 .068.015.03.016.053.042.021.026.033.058t.012.065q0 .036-.012.068-.013.032-.035.057-.023.026-.053.04-.03.015-.066.015m-.132-.18q0 .029.01.055.01.027.027.048.017.02.042.033.024.012.053.012.03 0 .055-.013.024-.012.041-.034.017-.02.026-.047.01-.027.01-.054 0-.03-.01-.056-.01-.026-.027-.047-.018-.021-.042-.033-.024-.012-.053-.012-.03 0-.054.012-.025.013-.042.034-.017.021-.026.048-.01.026-.01.054m.37.177V.085h.232v.031h-.198v.13h.167v.03h-.167V.44h-.035m.735 0V.151l-.128.225H-.68L-.81.15v.29h-.034V.084h.036l.138.243.14-.243h.035V.44H-.53m.272.003q-.037 0-.068-.015-.03-.015-.052-.041Q-.4.36-.412.329-.424.297-.424.263q0-.036.012-.068.013-.032.035-.058.023-.025.054-.04.03-.014.066-.014.037 0 .068.015.03.016.052.042.022.026.034.058.012.032.012.065 0 .036-.013.068-.012.032-.035.057-.022.026-.053.04-.03.015-.066.015m-.131-.18q0 .029.01.055.009.027.026.048.018.02.042.033.024.012.053.012.03 0 .055-.013.024-.012.041-.034.018-.02.027-.047.009-.027.009-.054 0-.03-.01-.056Q-.146.181-.163.16-.181.139-.205.127-.229.115-.258.115q-.03 0-.054.012-.024.013-.042.034Q-.37.182-.38.209q-.01.026-.01.054m.355-.178l.127.312.126-.312h.037L.108.44H.076L-.072.085h.037M.31.44V.085h.035V.44H.31M.678.41v.03H.44V.085h.234v.031h-.2v.128h.174v.03H.475v.135h.203M1.12.116H.993V.44H.958V.116H.83v-.03h.288v.03m.338-.03V.44h-.034V.274h-.21V.44h-.036V.085h.035v.158h.21V.085h.035M1.79.41V.44H1.55V.085h.234v.031h-.199v.128h.174v.03h-.174v.135h.204m.18-.324H2l.148.355H2.11L2.065.33h-.16L1.86.44h-.038l.149-.355m.086.217L1.985.126l-.072.176h.144m.365-.186h-.127V.44H2.26V.116h-.126v-.03h.288v.03m.296.293V.44H2.48V.085h.234v.031h-.2v.128h.174v.03h-.173v.135h.203M2.79.44V.085h.15q.023 0 .042.01.02.01.033.025.015.017.022.036.008.02.008.04 0 .026-.01.049-.01.022-.027.038-.018.015-.042.02l.087.137h-.04L2.93.31h-.105v.13H2.79m.035-.162h.116q.021 0 .037-.011.015-.012.024-.03.008-.02.008-.04 0-.022-.01-.04-.01-.018-.026-.03-.016-.01-.036-.01h-.113v.161"
        transform="translate(3.62 5.005)"
      ></path>
      <g clipPath="url(#SvgjsClipPath1001)" transform="translate(3.62 5.005)">
        <g clipPath="url(#a8a2c7f25-4ab6-4e8b-99c7-07a9747ea415f4a6c428-ea31-46fb-a9f2-dc4f766509f4)">
          <path
            fill="#bdbcbc"
            d="M.074-1.552L-.812-.187h.114l.048-.074c.007-.011.022-.02.033-.02h.126c.01 0 .014.009.007.02l-.048.074H.534l.048-.074c.007-.011.022-.02.033-.02H.74c.01 0 .014.009.007.02L.7-.187h.11l.886-1.365h-.11l-.056.086c-.007.011-.022.02-.033.02H1.37c-.011 0-.014-.009-.007-.02l.056-.086H.354l-.056.086c-.007.011-.022.02-.033.02H.139c-.011 0-.014-.009-.007-.02l.056-.086zm.68 1.025c.008-.011.023-.02.034-.02h.126c.01 0 .014.009.007.02l-.082.126c-.007.01-.022.02-.033.02H.68c-.011 0-.014-.01-.007-.02zm.173-.266c.008-.011.022-.02.033-.02h.126c.011 0 .014.009.007.02l-.082.126c-.007.01-.021.02-.032.02H.853c-.011 0-.015-.01-.007-.02zM1.1-1.06c.007-.011.022-.02.033-.02h.126c.011 0 .014.009.007.02l-.082.126c-.007.01-.022.02-.033.02h-.126c-.01 0-.014-.01-.007-.02zm.173-.267c.007-.01.022-.02.033-.02h.126c.01 0 .014.01.007.02l-.082.126c-.007.011-.022.02-.033.02h-.126c-.01 0-.014-.009-.007-.02zm-1.75.799c.007-.011.021-.02.032-.02h.126c.011 0 .015.009.007.02l-.081.126c-.008.01-.022.02-.033.02h-.126c-.011 0-.014-.01-.007-.02zm.172-.266c.008-.011.022-.02.033-.02h.126c.011 0 .014.009.007.02l-.082.126c-.007.01-.021.02-.032.02H-.38c-.012 0-.015-.01-.007-.02zm.173-.266c.007-.011.022-.02.033-.02h.126c.011 0 .014.009.007.02l-.082.126c-.007.01-.022.02-.033.02h-.126c-.01 0-.014-.01-.007-.02zm.173-.267c.007-.01.022-.02.033-.02H.2c.01 0 .014.01.007.02L.125-1.2c-.007.011-.022.02-.033.02h-.126c-.01 0-.014-.009-.007-.02z"
          ></path>
        </g>
        <g clipPath="url(#a8a2c7f25-4ab6-4e8b-99c7-07a9747ea415f4a6c428-ea31-46fb-a9f2-dc4f766509f4)">
          <path
            fill="#696767"
            d="M-.699-.188l-.056-.086c-.007-.01-.004-.02.007-.02h.126c.011 0 .026.01.033.02l.056.087H.533L.477-.274c-.007-.01-.004-.02.008-.02H.61c.011 0 .026.01.033.02L.7-.187h.11l-.885-1.365h-.11l.047.074c.007.011.004.02-.007.02h-.126c-.01 0-.025-.009-.033-.02l-.048-.074h-1.066l.048.074c.007.011.004.02-.007.02h-.126c-.01 0-.026-.009-.033-.02l-.048-.074h-.113l.886 1.365zm.485-1.15c-.007-.01-.004-.02.007-.02h.126c.011 0 .026.01.033.02l.082.126c.007.011.004.02-.007.02h-.126c-.01 0-.026-.009-.033-.02zm.173.266c-.007-.01-.004-.02.007-.02h.126c.011 0 .026.01.033.02l.082.126c.007.011.004.02-.007.02H.074c-.011 0-.026-.009-.033-.02zm.173.266c-.007-.01-.004-.02.007-.02h.126c.01 0 .026.01.033.02L.38-.68c.007.011.004.02-.007.02H.247C.236-.66.22-.669.214-.68zm.173.266C.298-.55.3-.56.312-.56h.126c.01 0 .025.01.033.02l.081.126c.008.011.004.02-.007.02H.42c-.01 0-.025-.009-.032-.02zm-1.75-.798c-.008-.01-.005-.02.006-.02h.126c.011 0 .026.01.033.02l.082.126c.007.011.004.02-.007.02h-.126c-.011 0-.026-.009-.033-.02zm.172.266c-.007-.01-.004-.02.007-.02h.126c.011 0 .026.01.033.02l.082.126c.007.011.004.02-.007.02h-.126c-.011 0-.026-.009-.033-.02zm.173.266c-.007-.01-.004-.02.007-.02h.126c.01 0 .026.01.033.02l.082.126c.007.011.004.02-.007.02h-.126c-.011 0-.026-.009-.033-.02zm.173.266c-.007-.01-.004-.02.007-.02h.126c.01 0 .025.01.033.02l.081.126c.008.011.004.02-.007.02h-.126c-.01 0-.025-.009-.033-.02z"
          ></path>
        </g>
        <g clipPath="url(#a8a2c7f25-4ab6-4e8b-99c7-07a9747ea415f4a6c428-ea31-46fb-a9f2-dc4f766509f4)">
          <path
            fill="#4b4748"
            d="M-.915-2.556c-.011 0-.015-.009-.007-.02l.05-.077-.054-.087-.772 1.188h.11l.056-.086c.007-.01.022-.02.033-.02h.126c.011 0 .014.01.007.02l-.056.086h1.066l.056-.086c.007-.01.022-.02.033-.02h.012l-.557-.898zm-.278.652l-.082.126c-.007.011-.022.02-.033.02h-.126c-.01 0-.014-.009-.007-.02l.082-.126c.007-.01.022-.02.033-.02h.126c.01 0 .014.01.007.02m.173-.266l-.082.126c-.007.011-.022.02-.033.02h-.126c-.011 0-.014-.009-.007-.02l.082-.126c.007-.01.022-.02.033-.02h.126c.01 0 .014.01.007.02m.172-.266l-.081.126c-.007.011-.022.02-.033.02h-.126c-.011 0-.014-.009-.007-.02l.082-.126c.007-.011.022-.02.033-.02h.125c.012 0 .015.009.007.02"
          ></path>
        </g>
        <g clipPath="url(#SvgjsClipPath1000f4a6c428-ea31-46fb-a9f2-dc4f766509f4)">
          <path fill="#231f20" d="M-.812-2.916l-.076.116z"></path>
        </g>
        <g clipPath="url(#SvgjsClipPath1000f4a6c428-ea31-46fb-a9f2-dc4f766509f4)">
          <path fill="#231f20" d="M-.536-2.916l1.025.024z"></path>
        </g>
        <g clipPath="url(#b8a2c7f25-4ab6-4e8b-99c7-07a9747ea415f4a6c428-ea31-46fb-a9f2-dc4f766509f4)">
          <path
            fill="#231f20"
            d="M.205-2.19H.079c-.011 0-.026.01-.033.02l-.082.126c-.007.011-.004.02.007.02h.126c.011 0 .026-.009.033-.02l.082-.126c.007-.01.004-.02-.007-.02"
          ></path>
        </g>
        <g clipPath="url(#b8a2c7f25-4ab6-4e8b-99c7-07a9747ea415f4a6c428-ea31-46fb-a9f2-dc4f766509f4)">
          <path
            fill="#231f20"
            d="M.378-2.456H.252c-.011 0-.026.009-.033.02l-.082.126c-.007.011-.004.02.007.02H.27c.01 0 .026-.009.033-.02l.082-.126c.007-.011.004-.02-.007-.02"
          ></path>
        </g>
        <g clipPath="url(#SvgjsClipPath1000f4a6c428-ea31-46fb-a9f2-dc4f766509f4)">
          <path fill="#231f20" d="M-.926-2.74l.038-.06z"></path>
        </g>
        <g clipPath="url(#c8a2c7f25-4ab6-4e8b-99c7-07a9747ea415f4a6c428-ea31-46fb-a9f2-dc4f766509f4)">
          <path
            fill="#231f20"
            d="M.55-2.722H.424c-.01 0-.025.009-.033.02l-.081.126c-.008.011-.004.02.007.02h.126c.01 0 .025-.009.033-.02l.081-.126c.008-.011.004-.02-.007-.02"
          ></path>
        </g>
        <g clipPath="url(#c8a2c7f25-4ab6-4e8b-99c7-07a9747ea415f4a6c428-ea31-46fb-a9f2-dc4f766509f4)">
          <path
            fill="#423e3f"
            d="M.696-2.916l-.048.074c-.007.01-.022.02-.033.02H.49c-.01 0-.014-.01-.007-.02L.5-2.86l-1.035-.057-.048.074c-.007.01-.022.02-.033.02h-.126c-.01 0-.014-.01-.007-.02l.05-.065-.114-.009-.074.116-.038.06.054.087.031-.049c.008-.011.022-.02.033-.02h.126c.011 0 .014.009.007.02l-.082.126c-.007.011-.021.02-.032.02h-.023l.557.898h.114c.011 0 .014.01.007.02l-.056.086h.114L.8-2.897zM.04-1.904l-.082.126c-.007.011-.022.02-.033.02h-.126c-.01 0-.014-.009-.007-.02l.082-.126c.007-.01.022-.02.033-.02h.126c.011 0 .014.01.007.02m.173-.266l-.082.126c-.007.011-.022.02-.033.02h-.126c-.011 0-.014-.009-.007-.02l.082-.126c.007-.01.022-.02.033-.02h.126c.01 0 .014.01.007.02m.173-.266l-.082.126c-.007.011-.022.02-.033.02H.144c-.011 0-.014-.009-.007-.02l.082-.126c.007-.011.022-.02.033-.02h.126c.01 0 .014.009.007.02m.172-.266l-.081.126c-.008.011-.022.02-.033.02H.317c-.011 0-.015-.009-.007-.02l.081-.126c.008-.011.022-.02.033-.02H.55c.011 0 .015.009.007.02"
          ></path>
        </g>
        <g clipPath="url(#c8a2c7f25-4ab6-4e8b-99c7-07a9747ea415f4a6c428-ea31-46fb-a9f2-dc4f766509f4)">
          <path
            fill="#f89c2a"
            d="M.699-2.916l.056.086c.007.011.004.02-.007.02H.622c-.011 0-.026-.009-.033-.02l-.065-.086H-.533l.055.086c.008.011.005.02-.007.02H-.61c-.011 0-.026-.009-.033-.02L-.7-2.916h-.11l.885 1.364h.11L.14-1.625c-.007-.011-.004-.02.007-.02h.126c.01 0 .025.009.033.02l.048.073h1.066l-.048-.073c-.007-.011-.004-.02.007-.02h.126c.01 0 .026.009.033.02l.048.073h.113L.812-2.916zm-.485 1.15c.007.012.004.02-.007.02H.08c-.011 0-.026-.008-.033-.02l-.082-.125c-.007-.011-.004-.02.007-.02h.126c.01 0 .026.009.033.02zM.04-2.031c.007.011.004.02-.007.02h-.126c-.011 0-.026-.009-.033-.02l-.082-.126c-.007-.01-.004-.02.007-.02h.126c.011 0 .026.01.033.02zm-.173-.266c.007.011.004.02-.007.02h-.126c-.01 0-.026-.009-.033-.02l-.082-.126c-.007-.01-.004-.02.007-.02h.126c.011 0 .026.01.033.02zm-.173-.266c.007.011.004.02-.007.02h-.126c-.01 0-.025-.009-.033-.02l-.081-.126c-.008-.01-.004-.02.007-.02h.126c.01 0 .025.01.032.02zm1.75.799c.008.01.005.02-.006.02h-.126c-.011 0-.026-.01-.033-.02l-.082-.126c-.007-.011-.004-.02.007-.02h.126c.011 0 .026.009.033.02zm-.172-.267c.007.011.004.02-.007.02H1.14c-.011 0-.026-.009-.033-.02l-.082-.126c-.007-.01-.004-.02.007-.02h.126c.011 0 .026.01.033.02zM1.1-2.298c.007.011.004.02-.007.02H.967c-.01 0-.026-.009-.033-.02l-.082-.126c-.007-.01-.004-.02.007-.02h.126c.011 0 .026.01.033.02zm-.173-.266c.007.011.004.02-.007.02H.794c-.01 0-.025-.009-.033-.02L.68-2.69c-.008-.01-.004-.02.007-.02h.126c.01 0 .025.01.033.02z"
          ></path>
        </g>
        <g clipPath="url(#c8a2c7f25-4ab6-4e8b-99c7-07a9747ea415f4a6c428-ea31-46fb-a9f2-dc4f766509f4)">
          <path
            fill="#a7a5a6"
            d="M.87-.45L.84-.401c-.007.01-.022.02-.033.02H.68c-.011 0-.014-.01-.007-.02l.082-.126c.007-.011.022-.02.033-.02H.81l-.557-.899H.14c-.011 0-.014-.009-.007-.02l.056-.086H.074l-.337.519-.052.08.097.14h.072c.011 0 .014.009.007.02l-.031.048.39.557h.314L.582-.26c.007-.011.022-.02.033-.02H.74c.01 0 .014.009.007.02L.7-.188h.11l.076-.115.038-.06zm-.836-.61l-.082.126c-.007.011-.022.02-.033.02h-.126c-.01 0-.014-.009-.007-.02l.082-.126c.007-.01.022-.02.033-.02h.126c.011 0 .014.01.007.02m.173-.266L.125-1.2c-.007.011-.022.02-.033.02h-.126c-.01 0-.014-.009-.007-.02l.082-.126c.007-.01.022-.02.033-.02H.2c.01 0 .014.01.007.02"
          ></path>
        </g>
        <g clipPath="url(#SvgjsClipPath1000f4a6c428-ea31-46fb-a9f2-dc4f766509f4)">
          <path fill="#a7a5a6" d="M-.812-.188l.497-.764-.001-.001z"></path>
        </g>
        <g clipPath="url(#d8a2c7f25-4ab6-4e8b-99c7-07a9747ea415f4a6c428-ea31-46fb-a9f2-dc4f766509f4)">
          <path
            fill="#939192"
            d="M-.22-.667c-.008.01-.022.02-.034.02h-.125c-.012 0-.015-.01-.007-.02l.081-.126c.007-.011.022-.02.033-.02h.054l-.097-.14-.497.765h.114L-.65-.26c.007-.011.022-.02.033-.02h.126c.01 0 .014.009.007.02l-.048.074H.22L-.17-.746zm-.092.14l-.081.126c-.008.01-.022.02-.033.02h-.126c-.011 0-.014-.01-.007-.02l.082-.126c.007-.011.021-.02.032-.02h.126c.011 0 .015.009.007.02"
          ></path>
        </g>
      </g>
      <defs>
        <clipPath id="SvgjsClipPath1001">
          <path d="M-1.698-2.916h3.396v2.728h-3.396z"></path>
        </clipPath>
        <clipPath id="a8a2c7f25-4ab6-4e8b-99c7-07a9747ea415f4a6c428-ea31-46fb-a9f2-dc4f766509f4">
          <path d="M-1.698-.188h3.396v-2.728h-3.396z"></path>
        </clipPath>
        <clipPath id="SvgjsClipPath1000f4a6c428-ea31-46fb-a9f2-dc4f766509f4">
          <path d="M-1.698-2.916h3.396v2.728h-3.396z"></path>
        </clipPath>
        <clipPath id="b8a2c7f25-4ab6-4e8b-99c7-07a9747ea415f4a6c428-ea31-46fb-a9f2-dc4f766509f4">
          <path d="M-1.698-.188h3.396v-2.728h-3.396z"></path>
        </clipPath>
        <clipPath id="c8a2c7f25-4ab6-4e8b-99c7-07a9747ea415f4a6c428-ea31-46fb-a9f2-dc4f766509f4">
          <path d="M-1.698-.188h3.396v-2.728h-3.396z"></path>
        </clipPath>
        <clipPath id="d8a2c7f25-4ab6-4e8b-99c7-07a9747ea415f4a6c428-ea31-46fb-a9f2-dc4f766509f4">
          <path d="M-1.698-.188h3.396v-2.728h-3.396z"></path>
        </clipPath>
      </defs>
    </svg>